# 3ds Max Wavefront OBJ Exporter v0.97b - (c)2007 guruware
# File Created: 20.09.2013 20:36:23

mtllib advertisement.mtl

#
# object polySurface1
#

v  -9.7920 6.1098 -7.1664
v  -9.6017 6.1781 -7.1481
v  -9.7920 6.1650 -7.3726
v  -9.6017 6.2333 -7.3543
v  -9.6017 6.0161 -7.4125
v  -9.8709 6.0161 -7.4125
v  -9.8709 -3.3281 -9.9708
v  -9.6017 -3.3281 -9.9708
v  -9.8709 -3.4106 -9.6629
v  -9.6017 -3.4106 -9.6629
v  -9.8709 5.9389 -7.1245
v  -9.6017 5.9389 -7.1245
v  -9.7920 6.0878 -7.0846
v  -9.6017 6.1561 -7.0663
v  -4.4933 6.0924 -7.1711
v  -4.3897 5.9608 -7.2063
v  -4.4933 6.1476 -7.3773
v  -4.3897 6.0161 -7.4125
v  -9.8709 5.9608 -7.2063
v  -4.6588 6.2333 -7.3543
v  -4.6588 6.0161 -7.4125
v  -9.6017 -1.2738 -9.1449
v  -9.6017 -1.2185 -9.3510
v  -4.6588 -1.2738 -9.1449
v  -4.6588 -1.2185 -9.3510
v  -4.6588 6.1561 -7.0663
v  -4.6588 5.9389 -7.1245
v  -4.6588 6.1781 -7.1481
v  -4.6588 -3.4106 -9.6629
v  -4.6588 -3.3281 -9.9708
v  -4.3897 -3.4106 -9.6629
v  -4.3897 -3.3281 -9.9708
v  -4.4933 6.0704 -7.0892
v  -4.3897 5.9389 -7.1245
v  -9.8709 -1.0012 -9.0718
v  -9.8709 -0.9460 -9.2780
v  -9.8709 -1.0231 -8.9900
v  -9.6017 -1.0231 -8.9900
v  -4.3897 -1.0231 -8.9900
v  -4.6588 -1.0231 -8.9900
v  -4.3897 -0.9460 -9.2780
v  -4.3897 -1.0012 -9.0718
v  -4.6588 -0.9460 -9.2780
v  -9.6017 -0.9460 -9.2780
v  -9.8709 -1.2738 -9.1449
v  -9.8709 -1.2185 -9.3510
v  -9.8709 -1.2947 -9.0627
v  -9.6017 -1.2947 -9.0627
v  -4.6588 -1.2947 -9.0627
v  -4.3897 -1.2947 -9.0627
v  -4.3897 -1.2185 -9.3510
v  -4.3897 -1.2738 -9.1449
v  -9.6017 -3.4306 -9.5806
v  -9.8709 -3.4306 -9.5806
v  -4.3897 -3.4306 -9.5806
v  -4.6588 -3.4306 -9.5806
v  -9.6017 5.9634 -7.2158
v  -4.6588 5.9634 -7.2158
v  -4.6588 -0.9987 -9.0813
v  -9.6017 -0.9987 -9.0813
v  -9.6017 5.9608 -7.2063
v  -4.6588 5.9608 -7.2063
v  -9.6017 -1.0012 -9.0718
v  -4.6588 -1.0012 -9.0718
v  -9.6017 5.9965 -7.2608
v  -4.6588 5.9965 -7.2608
v  -4.6588 -0.9655 -9.1263
v  -9.6017 -0.9655 -9.1263
v  -9.7920 6.1650 -7.0288
v  -9.6017 6.2333 -7.0471
v  -9.7920 6.1098 -7.2350
v  -9.6017 6.1781 -7.2533
v  -9.6017 5.9608 -7.1951
v  -9.8709 5.9608 -7.1951
v  -9.8709 -3.4106 -4.7385
v  -9.6017 -3.4106 -4.7385
v  -9.8709 -3.3281 -4.4306
v  -9.6017 -3.3281 -4.4306
v  -9.8709 6.0380 -6.9070
v  -9.6017 6.0380 -6.9070
v  -9.7920 6.1870 -6.9469
v  -9.6017 6.2553 -6.9652
v  -4.4933 6.1476 -7.0241
v  -4.3897 6.0161 -6.9889
v  -4.4933 6.0924 -7.2303
v  -4.3897 5.9608 -7.1951
v  -9.8709 6.0161 -6.9889
v  -4.6588 6.1781 -7.2533
v  -4.6588 5.9608 -7.1951
v  -9.6017 -1.2185 -5.0504
v  -9.6017 -1.2738 -5.2566
v  -4.6588 -1.2185 -5.0504
v  -4.6588 -1.2738 -5.2566
v  -4.6588 6.2553 -6.9652
v  -4.6588 6.0380 -6.9070
v  -4.6588 6.2333 -7.0471
v  -4.6588 -3.3281 -4.4306
v  -4.6588 -3.4106 -4.7385
v  -4.3897 -3.3281 -4.4306
v  -4.3897 -3.4106 -4.7385
v  -4.4933 6.1695 -6.9423
v  -4.3897 6.0380 -6.9070
v  -9.8709 -0.9460 -5.1234
v  -9.8709 -1.0012 -5.3296
v  -9.8709 -0.9240 -5.0416
v  -9.6017 -0.9240 -5.0416
v  -4.3897 -0.9240 -5.0416
v  -4.6588 -0.9240 -5.0416
v  -4.3897 -1.0012 -5.3296
v  -4.3897 -0.9460 -5.1234
v  -4.6588 -1.0012 -5.3296
v  -9.6017 -1.0012 -5.3296
v  -9.8709 -1.2185 -5.0504
v  -9.8709 -1.2738 -5.2566
v  -9.8709 -1.1956 -4.9688
v  -9.6017 -1.1956 -4.9688
v  -4.6588 -1.1956 -4.9688
v  -4.3897 -1.1956 -4.9688
v  -4.3897 -1.2738 -5.2566
v  -4.3897 -1.2185 -5.0504
v  -9.6017 -3.3042 -4.3493
v  -9.8709 -3.3042 -4.3493
v  -4.3897 -3.3042 -4.3493
v  -4.6588 -3.3042 -4.3493
v  -9.6017 6.0135 -6.9984
v  -4.6588 6.0135 -6.9984
v  -4.6588 -0.9485 -5.1329
v  -9.6017 -0.9485 -5.1329
v  -9.6017 6.0161 -6.9889
v  -4.6588 6.0161 -6.9889
v  -9.6017 -0.9460 -5.1234
v  -4.6588 -0.9460 -5.1234
# 132 vertices

vn -0.3482 0.9055 0.2426
vn -0.0138 0.9658 0.2588
vn 0.0000 0.2588 -0.9659
vn 0.0000 -0.9659 -0.2588
vn 0.0000 -0.9672 -0.2540
vn 0.0000 -0.2588 0.9659
vn 0.6413 0.7411 0.1986
vn 0.9999 0.0136 0.0036
vn 0.7960 0.5846 0.1566
vn -0.9999 0.0103 0.0028
vn -0.8903 0.4399 0.1179
vn 0.0000 -0.9668 -0.2555
vn 0.0174 0.9658 0.2588
vn -0.0000 -0.2588 0.9659
vn 0.4725 0.8513 0.2281
vn -1.0000 0.0000 -0.0000
vn 1.0000 0.0000 -0.0000
vn -1.0000 -0.0000 -0.0000
vn 0.0000 -0.2383 0.9712
vn 0.0000 -0.2522 0.9677
vn 0.0000 0.2655 -0.9641
vn 0.0000 0.2793 -0.9602
vn 0.0000 0.2819 -0.9595
vn 0.0000 -0.2356 0.9718
vn 0.0000 0.9659 0.2588
vn -0.3482 0.9055 0.2427
vn 0.0000 -0.9690 -0.2472
vn 0.0000 -0.9719 -0.2356
vn 1.0000 -0.0000 -0.0000
vn 0.0000 -0.9718 -0.2356
vn 0.0000 0.8055 0.5925
vn 0.0000 -0.8055 -0.5926
vn -0.3482 0.9055 -0.2426
vn -0.0138 0.9658 -0.2588
vn 0.0000 -0.2588 -0.9659
vn -0.0000 -0.2588 -0.9659
vn 0.0000 -0.9659 0.2588
vn 0.0000 -0.9646 0.2637
vn 0.0000 0.2588 0.9659
vn -0.0000 0.2588 0.9659
vn 0.6413 0.7411 -0.1986
vn 0.9999 0.0136 -0.0036
vn 0.7960 0.5846 -0.1566
vn -0.9999 0.0103 -0.0028
vn -0.8903 0.4399 -0.1179
vn 0.0000 -0.9650 0.2621
vn 0.0174 0.9658 -0.2588
vn 0.4725 0.8513 -0.2281
vn 0.0000 0.2793 0.9602
vn 0.0000 0.2654 0.9641
vn 0.0000 -0.2522 -0.9677
vn 0.0000 -0.2383 -0.9712
vn 0.0000 -0.2356 -0.9718
vn 0.0000 0.2819 0.9595
vn -0.0000 0.2819 0.9595
vn 0.0000 0.9659 -0.2588
vn -0.9999 0.0104 -0.0028
vn 0.0000 -0.9659 0.2589
vn 0.7960 0.5846 -0.1567
vn 0.0000 -0.9628 0.2704
vn 0.0000 -0.9595 0.2819
# 61 vertex normals

vt 0.1120 0.5336 0.0000
vt 0.1194 0.5329 0.0000
vt 0.1120 0.5416 0.0000
vt 0.1194 0.5409 0.0000
vt 0.7808 0.0204 0.0000
vt 0.7724 0.0204 0.0000
vt 0.7782 0.0131 0.0000
vt 0.7724 0.0100 0.0000
vt 0.0334 0.6716 0.0000
vt 0.0439 0.6716 0.0000
vt 0.0334 0.6835 0.0000
vt 0.0439 0.6835 0.0000
vt 0.3732 0.4634 0.0000
vt 0.3732 0.4530 0.0000
vt 0.3790 0.4603 0.0000
vt 0.3817 0.4530 0.0000
vt 0.4155 0.3838 0.0000
vt 0.4207 0.3840 0.0000
vt 0.4152 0.3921 0.0000
vt 0.4205 0.3922 0.0000
vt 0.7908 0.4356 0.0000
vt 0.7968 0.4357 0.0000
vt 0.7908 0.4439 0.0000
vt 0.7968 0.4439 0.0000
vt 0.7808 0.2121 0.0000
vt 0.7724 0.2121 0.0000
vt 0.1120 0.6644 0.0000
vt 0.1120 0.6564 0.0000
vt 0.3036 0.6644 0.0000
vt 0.3036 0.6564 0.0000
vt 0.3817 0.2613 0.0000
vt 0.3732 0.2613 0.0000
vt 0.3110 0.5409 0.0000
vt 0.3110 0.5329 0.0000
vt 0.7775 0.2185 0.0000
vt 0.7724 0.2225 0.0000
vt 0.3122 0.6418 0.0000
vt 0.3122 0.6299 0.0000
vt 0.3227 0.6418 0.0000
vt 0.3227 0.6299 0.0000
vt 0.3783 0.2549 0.0000
vt 0.3732 0.2509 0.0000
vt 0.3174 0.5418 0.0000
vt 0.3174 0.5338 0.0000
vt 0.5114 0.4336 0.0000
vt 0.5114 0.4419 0.0000
vt 0.1033 0.4634 0.0000
vt 0.1033 0.4530 0.0000
vt 0.1033 0.2509 0.0000
vt 0.1033 0.2613 0.0000
vt 0.6998 0.4012 0.0000
vt 0.7000 0.3929 0.0000
vt 0.5025 0.2121 0.0000
vt 0.5025 0.2225 0.0000
vt 0.5025 0.0100 0.0000
vt 0.5025 0.0204 0.0000
vt 0.5005 0.4335 0.0000
vt 0.5004 0.4418 0.0000
vt 0.0928 0.4634 0.0000
vt 0.0928 0.4530 0.0000
vt 0.0928 0.2613 0.0000
vt 0.0928 0.2509 0.0000
vt 0.7107 0.4015 0.0000
vt 0.7110 0.3933 0.0000
vt 0.4919 0.2121 0.0000
vt 0.4919 0.2225 0.0000
vt 0.4919 0.0204 0.0000
vt 0.4919 0.0100 0.0000
vt 0.4101 0.0100 0.0000
vt 0.4101 0.0204 0.0000
vt 0.0148 0.6012 0.0000
vt 0.0230 0.6015 0.0000
vt 0.0100 0.6863 0.0000
vt 0.0224 0.6867 0.0000
vt 0.0100 0.4530 0.0000
vt 0.0100 0.4634 0.0000
vt 0.4153 0.4309 0.0000
vt 0.4152 0.4433 0.0000
vt 0.2992 0.6450 0.0000
vt 0.2909 0.6449 0.0000
vt 0.3019 0.5598 0.0000
vt 0.2895 0.5597 0.0000
vt 0.4101 0.2121 0.0000
vt 0.4101 0.2225 0.0000
vt 0.7958 0.4063 0.0000
vt 0.7962 0.3940 0.0000
vt 0.0100 0.2509 0.0000
vt 0.0100 0.2613 0.0000
vt 0.1120 0.5150 0.0000
vt 0.3036 0.5150 0.0000
vt 0.1120 0.5226 0.0000
vt 0.3036 0.5226 0.0000
vt 0.3263 0.8242 0.0000
vt 0.0469 0.8222 0.0000
vt 0.3264 0.8163 0.0000
vt 0.0469 0.8143 0.0000
vt 0.7038 0.0600 0.0000
vt 0.5122 0.0600 0.0000
vt 0.7038 0.0524 0.0000
vt 0.5122 0.0524 0.0000
vt 0.9877 0.2678 0.0000
vt 0.7084 0.2588 0.0000
vt 0.9879 0.2599 0.0000
vt 0.7086 0.2509 0.0000
vt 0.1194 0.5297 0.0000
vt 0.1120 0.5305 0.0000
vt 0.7968 0.4324 0.0000
vt 0.7909 0.4323 0.0000
vt 0.1123 0.2977 0.0000
vt 0.3039 0.2977 0.0000
vt 0.1123 0.3009 0.0000
vt 0.3039 0.3009 0.0000
vt 0.3110 0.5297 0.0000
vt 0.4208 0.3807 0.0000
vt 0.4156 0.3805 0.0000
vt 0.3174 0.5306 0.0000
vt 0.9877 0.3013 0.0000
vt 0.7084 0.2923 0.0000
vt 0.9878 0.2980 0.0000
vt 0.7085 0.2891 0.0000
vt 0.5114 0.4303 0.0000
vt 0.3263 0.8916 0.0000
vt 0.0469 0.8896 0.0000
vt 0.3263 0.8883 0.0000
vt 0.0469 0.8863 0.0000
vt 0.7001 0.3896 0.0000
vt 0.5005 0.4303 0.0000
vt 0.3039 0.4458 0.0000
vt 0.1123 0.4458 0.0000
vt 0.3039 0.4427 0.0000
vt 0.1123 0.4427 0.0000
vt 0.1120 0.6676 0.0000
vt 0.3036 0.6676 0.0000
vt 0.7110 0.3900 0.0000
vt 0.4154 0.4276 0.0000
vt 0.0334 0.6867 0.0000
vt 0.0439 0.6867 0.0000
vt 0.0256 0.6867 0.0000
vt 0.0263 0.6015 0.0000
vt 0.3025 0.6450 0.0000
vt 0.3051 0.5599 0.0000
vt 0.3122 0.6450 0.0000
vt 0.3227 0.6450 0.0000
vt 0.7962 0.3907 0.0000
vt 0.1123 0.2786 0.0000
vt 0.3039 0.2786 0.0000
vt 0.1123 0.2803 0.0000
vt 0.3039 0.2803 0.0000
vt 0.6958 0.5590 0.0000
vt 0.6949 0.5609 0.0000
vt 0.4165 0.5500 0.0000
vt 0.4156 0.5520 0.0000
vt 0.3039 0.4253 0.0000
vt 0.1123 0.4253 0.0000
vt 0.3039 0.4235 0.0000
vt 0.1123 0.4235 0.0000
vt 0.0469 0.9200 0.0000
vt 0.3263 0.9220 0.0000
vt 0.0476 0.9220 0.0000
vt 0.3271 0.9240 0.0000
vt 0.1120 0.6780 0.0000
vt 0.1194 0.6787 0.0000
vt 0.1120 0.6860 0.0000
vt 0.1194 0.6867 0.0000
vt 0.3817 0.0204 0.0000
vt 0.3733 0.0204 0.0000
vt 0.3791 0.0131 0.0000
vt 0.3733 0.0100 0.0000
vt 0.0100 0.5790 0.0000
vt 0.0204 0.5790 0.0000
vt 0.0100 0.5910 0.0000
vt 0.0204 0.5910 0.0000
vt 0.3722 0.7043 0.0000
vt 0.3722 0.6939 0.0000
vt 0.3780 0.7012 0.0000
vt 0.3806 0.6939 0.0000
vt 0.7961 0.4854 0.0000
vt 0.7908 0.4853 0.0000
vt 0.7961 0.4771 0.0000
vt 0.7908 0.4771 0.0000
vt 0.4213 0.3418 0.0000
vt 0.4153 0.3416 0.0000
vt 0.4215 0.3336 0.0000
vt 0.4156 0.3334 0.0000
vt 0.3817 0.2121 0.0000
vt 0.3733 0.2121 0.0000
vt 0.5122 0.2018 0.0000
vt 0.5122 0.1938 0.0000
vt 0.7038 0.2018 0.0000
vt 0.7038 0.1938 0.0000
vt 0.3806 0.5022 0.0000
vt 0.3722 0.5022 0.0000
vt 0.3110 0.6867 0.0000
vt 0.3110 0.6787 0.0000
vt 0.3784 0.2185 0.0000
vt 0.3733 0.2225 0.0000
vt 0.2047 0.6419 0.0000
vt 0.2047 0.6299 0.0000
vt 0.2152 0.6419 0.0000
vt 0.2152 0.6299 0.0000
vt 0.3773 0.4958 0.0000
vt 0.3722 0.4918 0.0000
vt 0.3174 0.6858 0.0000
vt 0.3174 0.6779 0.0000
vt 0.7006 0.3508 0.0000
vt 0.7008 0.3425 0.0000
vt 0.1023 0.7043 0.0000
vt 0.1023 0.6939 0.0000
vt 0.1023 0.4918 0.0000
vt 0.1023 0.5022 0.0000
vt 0.5114 0.4751 0.0000
vt 0.5114 0.4833 0.0000
vt 0.1034 0.2121 0.0000
vt 0.1034 0.2225 0.0000
vt 0.1034 0.0100 0.0000
vt 0.1034 0.0204 0.0000
vt 0.7115 0.3511 0.0000
vt 0.7118 0.3429 0.0000
vt 0.0917 0.7043 0.0000
vt 0.0917 0.6939 0.0000
vt 0.0917 0.5022 0.0000
vt 0.0917 0.4918 0.0000
vt 0.5005 0.4750 0.0000
vt 0.5004 0.4833 0.0000
vt 0.0928 0.2121 0.0000
vt 0.0928 0.2225 0.0000
vt 0.0928 0.0204 0.0000
vt 0.0928 0.0100 0.0000
vt 0.0100 0.0100 0.0000
vt 0.0100 0.0204 0.0000
vt 0.1973 0.6086 0.0000
vt 0.1972 0.6169 0.0000
vt 0.1121 0.6059 0.0000
vt 0.1120 0.6183 0.0000
vt 0.0100 0.6939 0.0000
vt 0.0100 0.7043 0.0000
vt 0.7966 0.3559 0.0000
vt 0.7970 0.3436 0.0000
vt 0.1975 0.6367 0.0000
vt 0.1972 0.6450 0.0000
vt 0.1124 0.6320 0.0000
vt 0.1120 0.6443 0.0000
vt 0.0100 0.2121 0.0000
vt 0.0100 0.2225 0.0000
vt 0.4153 0.4723 0.0000
vt 0.4152 0.4847 0.0000
vt 0.0100 0.4918 0.0000
vt 0.0100 0.5022 0.0000
vt 0.5122 0.0376 0.0000
vt 0.7038 0.0376 0.0000
vt 0.5122 0.0453 0.0000
vt 0.7038 0.0453 0.0000
vt 0.4154 0.5171 0.0000
vt 0.6947 0.5260 0.0000
vt 0.4152 0.5250 0.0000
vt 0.6945 0.5339 0.0000
vt 0.7038 0.1867 0.0000
vt 0.5122 0.1867 0.0000
vt 0.7038 0.1790 0.0000
vt 0.5122 0.1790 0.0000
vt 0.0469 0.7760 0.0000
vt 0.3264 0.7780 0.0000
vt 0.0469 0.7839 0.0000
vt 0.3263 0.7859 0.0000
vt 0.1194 0.6756 0.0000
vt 0.1120 0.6749 0.0000
vt 0.4152 0.3449 0.0000
vt 0.4212 0.3451 0.0000
vt 0.1123 0.4324 0.0000
vt 0.3039 0.4324 0.0000
vt 0.1123 0.4356 0.0000
vt 0.3039 0.4356 0.0000
vt 0.3110 0.6756 0.0000
vt 0.7908 0.4886 0.0000
vt 0.7960 0.4887 0.0000
vt 0.3174 0.6747 0.0000
vt 0.0469 0.8526 0.0000
vt 0.3263 0.8546 0.0000
vt 0.0469 0.8559 0.0000
vt 0.3263 0.8579 0.0000
vt 0.7005 0.3541 0.0000
vt 0.0470 0.7425 0.0000
vt 0.3263 0.7514 0.0000
vt 0.0469 0.7458 0.0000
vt 0.3262 0.7547 0.0000
vt 0.5113 0.4866 0.0000
vt 0.7113 0.3544 0.0000
vt 0.3039 0.2906 0.0000
vt 0.1123 0.2906 0.0000
vt 0.3039 0.2874 0.0000
vt 0.1123 0.2874 0.0000
vt 0.5122 0.2049 0.0000
vt 0.7038 0.2049 0.0000
vt 0.5004 0.4866 0.0000
vt 0.7964 0.3592 0.0000
vt 0.0100 0.5941 0.0000
vt 0.0204 0.5941 0.0000
vt 0.1120 0.6216 0.0000
vt 0.1972 0.6202 0.0000
vt 0.1976 0.6335 0.0000
vt 0.1126 0.6287 0.0000
vt 0.2047 0.6450 0.0000
vt 0.2152 0.6450 0.0000
vt 0.4152 0.4880 0.0000
vt 0.6319 0.6764 0.0000
vt 0.4276 0.6764 0.0000
vt 0.4276 0.9642 0.0000
vt 0.6319 0.9642 0.0000
vt 0.9137 0.6935 0.0000
vt 0.6990 0.6935 0.0000
vt 0.6990 0.9958 0.0000
vt 0.9137 0.9958 0.0000
# 312 texture coords

g polySurface1
usemtl _testphong1SG
s 1
f 1/1/1 2/2/2 3/3/1 
f 3/3/1 2/2/2 4/4/2 
s 2
f 4/5/3 5/6/3 3/7/3 
f 3/7/3 5/6/3 6/8/3 
s 3
f 7/9/4 8/10/4 9/11/5 
f 9/11/5 8/10/4 10/12/5 
s 4
f 11/13/6 12/14/6 13/15/6 
f 13/15/6 12/14/6 14/16/6 
s 1
f 15/17/7 16/18/8 17/19/9 
f 17/19/9 16/18/8 18/20/8 
s 6
f 19/21/10 1/22/11 6/23/10 
f 6/23/10 1/22/11 3/24/11 
s 2
f 4/5/3 20/25/3 5/6/3 
f 5/6/3 20/25/3 21/26/3 
s 7
f 22/27/12 23/28/4 24/29/12 
f 24/29/12 23/28/4 25/30/4 
s 4
f 14/16/6 12/14/6 26/31/6 
f 26/31/6 12/14/6 27/32/6 
s 1
f 4/4/2 2/2/2 20/33/13 
f 20/33/13 2/2/2 28/34/13 
s 2
f 20/25/3 17/35/3 21/26/3 
f 21/26/3 17/35/3 18/36/3 
s 8
f 29/37/5 30/38/4 31/39/5 
f 31/39/5 30/38/4 32/40/4 
s 4
f 26/31/6 27/32/6 33/41/14 
f 33/41/14 27/32/6 34/42/6 
s 1
f 20/33/13 28/34/13 17/43/15 
f 17/43/15 28/34/13 15/44/7 
s 6
f 35/45/16 19/21/10 36/46/16 
f 36/46/16 19/21/10 6/23/10 
s 4
f 37/47/6 38/48/6 11/13/6 
f 11/13/6 38/48/6 12/14/6 
f 34/42/6 27/32/6 39/49/6 
f 39/49/6 27/32/6 40/50/6 
s 1
f 18/20/8 16/18/8 41/51/17 
f 41/51/17 16/18/8 42/52/17 
s 2
f 21/26/3 18/36/3 43/53/3 
f 43/53/3 18/36/3 41/54/3 
f 6/8/3 5/6/3 36/55/3 
f 36/55/3 5/6/3 44/56/3 
s 6
f 45/57/18 35/45/16 46/58/18 
f 46/58/18 35/45/16 36/46/16 
s 4
f 47/59/19 48/60/20 37/47/6 
f 37/47/6 48/60/20 38/48/6 
f 40/50/6 38/48/6 49/61/20 
f 49/61/20 38/48/6 48/60/20 
f 39/49/6 40/50/6 50/62/19 
f 50/62/19 40/50/6 49/61/20 
s 1
f 41/51/17 42/52/17 51/63/17 
f 51/63/17 42/52/17 52/64/17 
s 2
f 43/53/3 41/54/3 25/65/21 
f 25/65/21 41/54/3 51/66/22 
f 44/56/3 43/53/3 23/67/21 
f 23/67/21 43/53/3 25/65/21 
f 36/55/3 44/56/3 46/68/22 
f 46/68/22 44/56/3 23/67/21 
f 46/68/22 23/67/21 7/69/23 
f 7/69/23 23/67/21 8/70/23 
s 14
f 23/71/17 22/72/17 8/73/17 
f 8/73/17 22/72/17 10/74/17 
s 4
f 48/60/20 47/59/19 53/75/24 
f 53/75/24 47/59/19 54/76/24 
s 6
f 45/57/18 46/58/18 9/77/16 
f 9/77/16 46/58/18 7/78/16 
s 15
f 24/79/16 25/80/16 29/81/16 
f 29/81/16 25/80/16 30/82/16 
s 2
f 25/65/21 51/66/22 30/83/23 
f 30/83/23 51/66/22 32/84/23 
s 1
f 51/63/17 52/64/17 32/85/17 
f 32/85/17 52/64/17 31/86/17 
s 4
f 50/62/19 49/61/20 55/87/24 
f 55/87/24 49/61/20 56/88/24 
s 16
f 5/89/4 21/90/4 57/91/4 
f 57/91/4 21/90/4 58/92/4 
s 17
f 21/93/16 43/94/16 58/95/16 
f 58/95/16 43/94/16 59/96/16 
s 18
f 43/97/25 44/98/25 59/99/25 
f 59/99/25 44/98/25 60/100/25 
s 19
f 44/101/17 5/102/17 60/103/17 
f 60/103/17 5/102/17 57/104/17 
s 1
f 2/2/2 1/1/1 14/105/2 
f 14/105/2 1/1/1 13/106/26 
s 6
f 1/22/11 19/21/10 13/107/11 
f 13/107/11 19/21/10 11/108/10 
s 20
f 61/109/4 62/110/4 12/111/4 
f 12/111/4 62/110/4 27/112/4 
s 1
f 28/34/13 2/2/2 26/113/13 
f 26/113/13 2/2/2 14/105/2 
f 16/18/8 15/17/7 34/114/9 
f 34/114/9 15/17/7 33/115/7 
f 15/44/7 28/34/13 33/116/7 
f 33/116/7 28/34/13 26/113/13 
s 21
f 63/117/17 61/118/17 38/119/17 
f 38/119/17 61/118/17 12/120/17 
s 6
f 19/21/10 35/45/16 11/108/10 
f 11/108/10 35/45/16 37/121/16 
s 22
f 62/122/16 64/123/16 27/124/16 
f 27/124/16 64/123/16 40/125/16 
s 1
f 42/52/17 16/18/8 39/126/17 
f 39/126/17 16/18/8 34/114/17 
s 6
f 45/57/18 47/127/16 35/45/16 
f 35/45/16 47/127/16 37/121/16 
s 23
f 64/128/25 63/129/25 40/130/25 
f 40/130/25 63/129/25 38/131/25 
s 7
f 22/27/12 24/29/12 48/132/27 
f 48/132/27 24/29/12 49/133/27 
s 1
f 52/64/17 42/52/17 50/134/17 
f 50/134/17 42/52/17 39/126/17 
s 6
f 45/57/18 9/77/16 47/127/16 
f 47/127/16 9/77/16 54/135/16 
s 3
f 9/11/5 10/12/5 54/136/28 
f 54/136/28 10/12/5 53/137/28 
s 14
f 10/74/17 22/72/17 53/138/29 
f 53/138/29 22/72/17 48/139/17 
s 15
f 24/79/16 29/81/16 49/140/16 
f 49/140/16 29/81/16 56/141/16 
s 8
f 29/37/5 31/39/5 56/142/30 
f 56/142/30 31/39/5 55/143/28 
s 1
f 31/86/17 52/64/17 55/144/17 
f 55/144/17 52/64/17 50/134/17 
s 24
f 57/145/31 58/146/31 65/147/31 
f 65/147/31 58/146/31 66/148/31 
s 25
f 59/149/17 67/150/17 58/151/17 
f 58/151/17 67/150/17 66/152/17 
s 26
f 59/153/32 60/154/32 67/155/32 
f 67/155/32 60/154/32 68/156/32 
s 27
f 60/157/16 57/158/16 68/159/16 
f 68/159/16 57/158/16 65/160/16 
s 28
f 69/161/33 70/162/34 71/163/33 
f 71/163/33 70/162/34 72/164/34 
s 29
f 72/165/35 73/166/35 71/167/36 
f 71/167/36 73/166/35 74/168/35 
s 30
f 75/169/37 76/170/37 77/171/38 
f 77/171/38 76/170/37 78/172/38 
s 31
f 79/173/39 80/174/39 81/175/39 
f 81/175/39 80/174/39 82/176/40 
s 28
f 83/177/41 84/178/42 85/179/43 
f 85/179/43 84/178/42 86/180/42 
s 33
f 87/181/44 69/182/45 74/183/44 
f 74/183/44 69/182/45 71/184/45 
s 29
f 72/165/35 88/185/35 73/166/35 
f 73/166/35 88/185/35 89/186/35 
s 34
f 90/187/46 91/188/37 92/189/46 
f 92/189/46 91/188/37 93/190/37 
s 31
f 82/176/40 80/174/39 94/191/39 
f 94/191/39 80/174/39 95/192/39 
s 28
f 72/164/34 70/162/34 88/193/47 
f 88/193/47 70/162/34 96/194/47 
s 29
f 88/185/35 85/195/35 89/186/35 
f 89/186/35 85/195/35 86/196/35 
s 35
f 97/197/38 98/198/37 99/199/38 
f 99/199/38 98/198/37 100/200/37 
s 31
f 94/191/39 95/192/39 101/201/40 
f 101/201/40 95/192/39 102/202/39 
s 28
f 88/193/47 96/194/47 85/203/48 
f 85/203/48 96/194/47 83/204/41 
s 33
f 103/205/16 87/181/44 104/206/16 
f 104/206/16 87/181/44 74/183/44 
s 31
f 105/207/39 106/208/39 79/173/39 
f 79/173/39 106/208/39 80/174/39 
f 102/202/39 95/192/39 107/209/40 
f 107/209/40 95/192/39 108/210/40 
s 28
f 86/180/42 84/178/42 109/211/17 
f 109/211/17 84/178/42 110/212/17 
s 29
f 89/186/35 86/196/35 111/213/35 
f 111/213/35 86/196/35 109/214/35 
f 74/168/35 73/166/35 104/215/35 
f 104/215/35 73/166/35 112/216/35 
s 33
f 113/217/16 103/205/16 114/218/16 
f 114/218/16 103/205/16 104/206/16 
s 31
f 115/219/49 116/220/50 105/207/39 
f 105/207/39 116/220/50 106/208/39 
f 108/210/40 106/208/39 117/221/50 
f 117/221/50 106/208/39 116/220/50 
f 107/209/40 108/210/40 118/222/49 
f 118/222/49 108/210/40 117/221/50 
s 28
f 109/211/17 110/212/17 119/223/17 
f 119/223/17 110/212/17 120/224/17 
s 29
f 111/213/35 109/214/35 93/225/51 
f 93/225/51 109/214/35 119/226/52 
f 112/216/35 111/213/35 91/227/51 
f 91/227/51 111/213/35 93/225/51 
f 104/215/35 112/216/35 114/228/52 
f 114/228/52 112/216/35 91/227/51 
f 114/228/52 91/227/51 75/229/53 
f 75/229/53 91/227/51 76/230/53 
s 41
f 91/231/17 90/232/17 76/233/17 
f 76/233/17 90/232/17 78/234/17 
s 31
f 116/220/50 115/219/49 121/235/54 
f 121/235/54 115/219/49 122/236/54 
s 33
f 113/217/16 114/218/16 77/237/16 
f 77/237/16 114/218/16 75/238/16 
s 42
f 92/239/16 93/240/16 97/241/16 
f 97/241/16 93/240/16 98/242/16 
s 29
f 93/225/51 119/226/52 98/243/53 
f 98/243/53 119/226/52 100/244/53 
s 28
f 119/223/17 120/224/17 100/245/17 
f 100/245/17 120/224/17 99/246/17 
s 31
f 118/222/49 117/221/50 123/247/55 
f 123/247/55 117/221/50 124/248/55 
s 43
f 73/249/37 89/250/37 125/251/37 
f 125/251/37 89/250/37 126/252/37 
s 44
f 89/253/16 111/254/16 126/255/16 
f 126/255/16 111/254/16 127/256/16 
s 45
f 111/257/56 112/258/56 127/259/56 
f 127/259/56 112/258/56 128/260/56 
s 46
f 112/261/17 73/262/17 128/263/17 
f 128/263/17 73/262/17 125/264/17 
s 28
f 70/162/34 69/161/33 82/265/34 
f 82/265/34 69/161/33 81/266/33 
s 33
f 69/182/45 87/181/44 81/267/45 
f 81/267/45 87/181/44 79/268/57 
s 47
f 129/269/58 130/270/58 80/271/58 
f 80/271/58 130/270/58 95/272/58 
s 28
f 96/194/47 70/162/34 94/273/47 
f 94/273/47 70/162/34 82/265/34 
f 84/178/42 83/177/41 102/274/59 
f 102/274/59 83/177/41 101/275/41 
f 83/204/41 96/194/47 101/276/41 
f 101/276/41 96/194/47 94/273/47 
s 48
f 131/277/17 129/278/17 106/279/17 
f 106/279/17 129/278/17 80/280/17 
s 33
f 87/181/44 103/205/16 79/268/57 
f 79/268/57 103/205/16 105/281/16 
s 49
f 130/282/16 132/283/16 95/284/16 
f 95/284/16 132/283/16 108/285/16 
s 28
f 110/212/17 84/178/42 107/286/17 
f 107/286/17 84/178/42 102/274/17 
s 33
f 113/217/16 115/287/16 103/205/16 
f 103/205/16 115/287/16 105/281/16 
s 50
f 132/288/56 131/289/56 108/290/56 
f 108/290/56 131/289/56 106/291/56 
s 34
f 90/187/46 92/189/46 116/292/60 
f 116/292/60 92/189/46 117/293/60 
s 28
f 120/224/17 110/212/17 118/294/17 
f 118/294/17 110/212/17 107/286/17 
s 33
f 113/217/16 77/237/16 115/287/16 
f 115/287/16 77/237/16 122/295/16 
s 30
f 77/171/38 78/172/38 122/296/61 
f 122/296/61 78/172/38 121/297/61 
s 41
f 78/234/17 90/232/17 121/298/17 
f 121/298/17 90/232/17 116/299/17 
s 42
f 92/239/16 97/241/16 117/300/16 
f 117/300/16 97/241/16 124/301/16 
s 35
f 97/197/38 99/199/38 124/302/61 
f 124/302/61 99/199/38 123/303/61 
s 28
f 99/246/17 120/224/17 123/304/17 
f 123/304/17 120/224/17 118/294/17 
s off
f 131/305/40 132/306/40 130/307/40 
f 130/307/40 129/308/40 131/305/40 
f 67/309/3 68/310/3 65/311/3 
f 65/311/3 66/312/3 67/309/3 
# 252 faces

