# 3ds Max Wavefront OBJ Exporter v0.97b - (c)2007 guruware
# File Created: 03.11.2013 18:16:30

mtllib bomb.mtl

#
# object Box01
#

v  -96.3162 0.0000 47.6617
v  -96.3162 0.0000 -47.6617
v  99.0071 0.0000 -47.6617
v  99.0071 0.0000 47.6617
v  -96.3162 50.0000 47.6617
v  99.0071 50.0000 47.6617
v  99.0071 50.0000 -47.6617
v  -96.3162 50.0000 -47.6617
v  -96.3162 2.3383 50.0000
v  99.0071 2.3383 50.0000
v  99.0071 47.6617 50.0000
v  -96.3162 47.6617 50.0000
v  101.3455 2.3383 47.6617
v  101.3455 2.3383 -47.6617
v  101.3455 47.6617 -47.6617
v  101.3455 47.6617 47.6617
v  99.0071 2.3383 -50.0000
v  -96.3162 2.3383 -50.0000
v  -96.3162 47.6617 -50.0000
v  99.0071 47.6617 -50.0000
v  -98.6545 2.3383 -47.6617
v  -98.6545 2.3383 47.6617
v  -98.6545 47.6617 47.6617
v  -98.6545 47.6617 -47.6617
# 24 vertices

vn 0.0000 -1.0000 -0.0000
vn 0.0000 1.0000 -0.0000
vn 0.0000 0.0000 1.0000
vn 1.0000 0.0000 -0.0000
vn 0.0000 0.0000 -1.0000
vn -1.0000 0.0000 -0.0000
vn -0.5774 -0.5774 0.5774
vn 0.5774 -0.5774 0.5774
vn -0.5774 -0.5774 -0.5774
vn 0.5774 -0.5774 -0.5774
vn -0.5774 0.5774 0.5774
vn 0.5774 0.5774 0.5774
vn -0.5774 0.5774 -0.5774
vn 0.5774 0.5774 -0.5774
vn -0.7071 -0.7071 -0.0000
vn 0.0000 -0.7071 -0.7071
vn 0.7071 -0.7071 -0.0000
vn 0.0000 -0.7071 0.7071
vn 0.0000 0.7071 0.7071
vn 0.7071 0.7071 -0.0000
vn 0.0000 0.7071 -0.7071
vn -0.7071 0.7071 -0.0000
vn 0.7071 0.0000 0.7071
vn -0.7071 0.0000 0.7071
vn 0.7071 0.0000 -0.7071
vn -0.7071 0.0000 -0.7071
# 26 vertex normals

vt 0.0283 0.5029 0.0000
vt 0.2530 0.5037 0.0000
vt 0.2515 0.9641 0.0000
vt 0.0268 0.9634 0.0000
vt 0.6002 0.5048 0.0000
vt 0.5987 0.9653 0.0000
vt 0.3739 0.9646 0.0000
vt 0.3755 0.5041 0.0000
vt 0.7149 0.5052 0.0000
vt 0.7133 0.9657 0.0000
vt 0.6065 0.9653 0.0000
vt 0.6080 0.5048 0.0000
vt 0.7436 0.9352 0.0000
vt 0.7443 0.4930 0.0000
vt 0.9545 0.4940 0.0000
vt 0.9538 0.9361 0.0000
vt 0.2593 0.9642 0.0000
vt 0.2608 0.5037 0.0000
vt 0.3677 0.5040 0.0000
vt 0.3662 0.9645 0.0000
vt 0.7469 0.9170 0.0000
vt 0.7518 0.4919 0.0000
vt 0.9539 0.4943 0.0000
vt 0.9490 0.9193 0.0000
vt 0.7349 0.5249 0.0000
vt 0.7347 0.5397 0.0000
vt 0.7220 0.5322 0.0000
vt 0.7213 0.5593 0.0000
vt 0.7346 0.5517 0.0000
vt 0.7346 0.5670 0.0000
vt 0.7497 0.5011 0.0000
vt 0.7496 0.5159 0.0000
vt 0.7369 0.5083 0.0000
vt 0.7217 0.5810 0.0000
vt 0.7349 0.5733 0.0000
vt 0.7349 0.5887 0.0000
vt 0.7208 0.5628 0.0000
vt 0.7335 0.5703 0.0000
vt 0.7207 0.5776 0.0000
vt 0.7223 0.5350 0.0000
vt 0.7355 0.5427 0.0000
vt 0.7222 0.5503 0.0000
vt 0.7367 0.5252 0.0000
vt 0.7494 0.5327 0.0000
vt 0.7365 0.5399 0.0000
vt 0.7229 0.5133 0.0000
vt 0.7361 0.5210 0.0000
vt 0.7228 0.5287 0.0000
vt 0.7591 0.5116 0.0000
vt 0.7542 0.9367 0.0000
vt 0.7355 0.4941 0.0000
vt 0.7348 0.9362 0.0000
vt 0.7211 0.9657 0.0000
vt 0.7227 0.5052 0.0000
vt 0.9667 0.9372 0.0000
vt 0.9675 0.4950 0.0000
vt 0.9772 0.9392 0.0000
vt 0.9820 0.5142 0.0000
vt 0.7436 0.9466 0.0000
vt 0.9538 0.9470 0.0000
vt 0.9540 0.4838 0.0000
vt 0.7519 0.4815 0.0000
vt 0.7443 0.4828 0.0000
vt 0.9545 0.4831 0.0000
vt 0.7468 0.9274 0.0000
vt 0.9489 0.9297 0.0000
# 66 texture coords

g Box01
usemtl Material__21
s 2
f 1/1/1 2/2/1 3/3/1 
f 3/3/1 4/4/1 1/1/1 
s 4
f 5/5/2 6/6/2 7/7/2 
f 7/7/2 8/8/2 5/5/2 
s 8
f 9/9/3 10/10/3 11/11/3 
f 11/11/3 12/12/3 9/9/3 
s 16
f 13/13/4 14/14/4 15/15/4 
f 15/15/4 16/16/4 13/13/4 
s 32
f 17/17/5 18/18/5 19/19/5 
f 19/19/5 20/20/5 17/17/5 
s 64
f 21/21/6 22/22/6 23/23/6 
f 23/23/6 24/24/6 21/21/6 
s off
f 9/25/7 22/26/7 1/27/7 
f 4/28/8 13/29/8 10/30/8 
f 21/31/9 18/32/9 2/33/9 
f 3/34/10 17/35/10 14/36/10 
f 12/37/11 5/38/11 23/39/11 
f 16/40/12 6/41/12 11/42/12 
f 24/43/13 8/44/13 19/45/13 
f 20/46/14 7/47/14 15/48/14 
f 1/49/15 22/22/15 21/21/15 
f 21/21/15 2/50/15 1/49/15 
f 2/2/16 18/18/16 17/17/16 
f 17/17/16 3/3/16 2/2/16 
f 3/51/17 14/14/17 13/13/17 
f 13/13/17 4/52/17 3/51/17 
f 4/53/18 10/10/18 9/9/18 
f 9/9/18 1/54/18 4/53/18 
f 5/5/19 12/12/19 11/11/19 
f 11/11/19 6/6/19 5/5/19 
f 6/55/20 16/16/20 15/15/20 
f 15/15/20 7/56/20 6/55/20 
f 7/7/21 20/20/21 19/19/21 
f 19/19/21 8/8/21 7/7/21 
f 8/57/22 24/24/22 23/23/22 
f 23/23/22 5/58/22 8/57/22 
f 10/59/23 13/13/23 16/16/23 
f 16/16/23 11/60/23 10/59/23 
f 12/61/24 23/23/24 22/22/24 
f 22/22/24 9/62/24 12/61/24 
f 14/14/25 17/63/25 20/64/25 
f 20/64/25 15/15/25 14/14/25 
f 18/65/26 21/21/26 24/24/26 
f 24/24/26 19/66/26 18/65/26 
# 44 faces

#
# object Box02
#

v  36.6623 57.1168 -36.9449
v  36.6623 57.1168 36.1329
v  56.7977 57.1168 36.1329
v  56.7977 57.1168 -36.9449
v  20.0000 50.0000 41.2582
v  61.8540 50.0000 41.2582
v  61.8540 60.0000 41.2582
v  20.0000 60.0000 41.2582
v  61.8540 50.0000 -42.0702
v  61.8540 60.0000 -42.0702
v  20.0000 50.0000 -42.0702
v  20.0000 60.0000 -42.0702
v  36.6623 60.0000 36.1329
v  36.6623 60.0000 -36.9449
v  56.7977 60.0000 36.1329
v  56.7977 60.0000 -36.9449
v  20.0000 52.6909 18.2762
v  20.0000 52.6909 -19.0882
v  20.0000 57.3091 18.2762
v  20.0000 57.3091 -19.0882
v  15.0000 57.3091 18.2762
v  15.0000 52.6909 18.2762
v  15.0000 57.3091 -19.0882
v  15.0000 52.6909 -19.0882
v  15.0000 54.6131 17.6091
v  15.0000 54.6131 -18.4211
v  15.0000 55.3869 17.6091
v  15.0000 55.3869 -18.4211
v  6.7875 56.2869 17.6091
v  6.7875 55.5130 17.6091
v  6.7875 56.2869 -18.4211
v  6.7875 55.5130 -18.4211
v  0.1151 57.6356 17.6091
v  0.1825 56.8647 17.6091
v  0.1151 57.6356 -18.4211
v  0.1825 56.8647 -18.4211
v  -3.2318 56.2418 17.6091
v  -2.9047 55.5404 17.6091
v  -3.2318 56.2418 -18.4211
v  -2.9047 55.5404 -18.4211
v  -5.0298 54.5730 17.6091
v  -4.3959 54.1291 17.6091
v  -5.0298 54.5730 -18.4211
v  -4.3959 54.1291 -18.4211
v  -4.3735 53.0184 17.6091
v  -5.1474 53.0184 17.6091
v  -5.1474 53.0184 -18.4211
v  -4.3735 53.0184 -18.4211
v  -2.7329 53.0174 19.2496
v  -2.7329 53.0174 -20.0616
v  -6.7879 53.0174 19.2496
v  -6.7879 53.0174 -20.0616
v  -2.7329 51.3768 19.2496
v  -2.7329 51.3768 -20.0616
v  -6.7879 51.3768 19.2496
v  -6.7879 51.3768 -20.0616
# 56 vertices

vn 0.0000 1.0000 -0.0000
vn -0.0000 0.0000 1.0000
vn 1.0000 0.0000 0.0000
vn 0.0000 0.0000 -1.0000
vn -1.0000 0.0000 -0.0000
vn -1.0000 -0.0000 -0.0000
vn -1.0000 0.0000 0.0000
vn -0.0000 0.0000 -1.0000
vn -1.0000 -0.0000 0.0000
vn 0.0909 0.9959 -0.0000
vn 0.1661 0.9861 -0.0000
vn -0.3279 0.9447 0.0000
vn -0.6118 0.7910 0.0000
vn -0.0000 -0.0000 -1.0000
vn 0.0000 0.0000 1.0000
vn -0.9959 0.0904 0.0000
vn 0.0000 -0.0000 -1.0000
vn 0.0005 1.0000 -0.0000
vn -0.0000 1.0000 0.0005
vn -0.0005 1.0000 -0.0000
vn 0.0000 1.0000 -0.0005
vn 1.0000 0.0000 -0.0000
# 22 vertex normals

vt 0.6619 0.0996 0.0000
vt 0.9902 0.0996 0.0000
vt 0.9902 0.2031 0.0000
vt 0.6619 0.2031 0.0000
vt 0.6563 0.2752 0.0000
vt 0.7153 0.2752 0.0000
vt 0.7153 0.2991 0.0000
vt 0.6563 0.2991 0.0000
vt 0.8327 0.2752 0.0000
vt 0.8327 0.2991 0.0000
vt 0.4800 0.2752 0.0000
vt 0.5390 0.2752 0.0000
vt 0.5390 0.2991 0.0000
vt 0.4800 0.2991 0.0000
vt 0.6515 0.4382 0.0000
vt 0.6798 0.3138 0.0000
vt 0.6749 0.4235 0.0000
vt 0.7082 0.3138 0.0000
vt 0.7104 0.4382 0.0000
vt 0.7033 0.4235 0.0000
vt 0.6783 0.2135 0.0000
vt 0.6783 0.4235 0.0000
vt 0.7082 0.3208 0.0000
vt 0.6798 0.3208 0.0000
vt 0.6999 0.4235 0.0000
vt 0.6999 0.2135 0.0000
vt 0.6749 0.4166 0.0000
vt 0.7033 0.4166 0.0000
vt 0.6240 0.2816 0.0000
vt 0.5713 0.2816 0.0000
vt 0.6240 0.2927 0.0000
vt 0.5713 0.2927 0.0000
vt 0.8108 0.3771 0.0000
vt 0.8108 0.4007 0.0000
vt 0.7802 0.4007 0.0000
vt 0.7802 0.3771 0.0000
vt 0.9201 0.3887 0.0000
vt 0.6913 0.3887 0.0000
vt 0.6913 0.3581 0.0000
vt 0.9201 0.3581 0.0000
vt 0.8057 0.4192 0.0000
vt 0.8057 0.3956 0.0000
vt 0.8363 0.3956 0.0000
vt 0.8363 0.4192 0.0000
vt 0.5514 0.3771 0.0000
vt 0.7761 0.3869 0.0000
vt 0.5555 0.3869 0.0000
vt 0.7761 0.3909 0.0000
vt 0.5514 0.4007 0.0000
vt 0.5555 0.3909 0.0000
vt 0.5237 0.2568 0.0000
vt 0.5240 0.2529 0.0000
vt 0.5741 0.2514 0.0000
vt 0.5739 0.2553 0.0000
vt 0.5058 0.2449 0.0000
vt 0.5124 0.0256 0.0000
vt 0.5626 0.0271 0.0000
vt 0.5560 0.2464 0.0000
vt 0.5232 0.0138 0.0000
vt 0.5230 0.0099 0.0000
vt 0.5731 0.0114 0.0000
vt 0.5734 0.0154 0.0000
vt 0.5980 0.2545 0.0000
vt 0.6000 0.2579 0.0000
vt 0.6037 0.0284 0.0000
vt 0.5971 0.2476 0.0000
vt 0.6137 0.0158 0.0000
vt 0.6143 0.0197 0.0000
vt 0.6186 0.2483 0.0000
vt 0.6191 0.2523 0.0000
vt 0.6252 0.0290 0.0000
vt 0.6334 0.0168 0.0000
vt 0.6299 0.0190 0.0000
vt 0.6325 0.2487 0.0000
vt 0.6307 0.2528 0.0000
vt 0.6391 0.0294 0.0000
vt 0.6411 0.0254 0.0000
vt 0.6339 0.2574 0.0000
vt 0.6377 0.2546 0.0000
vt 0.6470 0.0297 0.0000
vt 0.6404 0.2489 0.0000
vt 0.6467 0.0250 0.0000
vt 0.9554 0.3785 0.0000
vt 0.5068 0.3786 0.0000
vt 0.4864 0.3582 0.0000
vt 0.9759 0.3581 0.0000
vt 0.5068 0.3883 0.0000
vt 0.4864 0.4087 0.0000
vt 0.9554 0.3881 0.0000
vt 0.9759 0.4086 0.0000
vt 0.4863 0.3412 0.0000
vt 0.9758 0.3410 0.0000
vt 0.4693 0.4087 0.0000
vt 0.4693 0.3582 0.0000
vt 0.9759 0.4256 0.0000
vt 0.4864 0.4258 0.0000
vt 0.9929 0.3581 0.0000
vt 0.9929 0.4086 0.0000
# 98 texture coords

g Box02
usemtl 02___Default
s 4
f 25/67/27 26/68/27 27/69/27 
f 27/69/27 28/70/27 25/67/27 
s 16
f 29/71/28 30/72/28 31/73/28 
f 31/73/28 32/74/28 29/71/28 
s 32
f 30/72/29 33/75/29 34/76/29 
f 34/76/29 31/73/29 30/72/29 
s 64
f 33/77/30 35/78/30 36/79/30 
f 36/79/30 34/80/30 33/77/30 
s off
f 36/81/27 32/74/27 37/82/27 
f 37/82/27 38/83/27 36/81/27 
f 32/74/27 31/73/27 39/84/27 
f 39/84/27 37/82/27 32/74/27 
f 31/73/27 34/85/27 40/86/27 
f 40/86/27 39/84/27 31/73/27 
f 34/85/27 36/81/27 38/83/27 
f 38/83/27 40/86/27 34/85/27 
f 38/83/29 37/82/29 26/87/29 
f 26/87/29 25/88/29 38/83/29 
f 37/82/30 39/84/30 27/89/30 
f 27/89/30 26/90/30 37/82/30 
f 39/84/31 40/86/31 28/91/31 
f 28/91/31 27/92/31 39/84/31 
f 40/86/28 38/83/28 25/93/28 
f 25/93/28 28/94/28 40/86/28 
f 35/78/32 29/71/32 41/95/32 
f 41/95/31 42/96/31 35/78/31 
f 29/71/33 32/74/33 43/97/33 
f 43/97/33 41/95/33 29/71/33 
f 32/74/32 36/79/32 44/98/32 
f 44/98/31 43/97/31 32/74/31 
f 36/79/33 35/78/33 42/96/33 
f 42/96/33 44/98/33 36/79/33 
f 41/99/28 43/100/28 45/101/28 
f 45/101/28 46/102/28 41/99/28 
f 43/103/27 44/104/27 47/105/27 
f 47/105/27 45/106/27 43/103/27 
f 44/107/34 42/108/34 48/109/34 
f 48/109/34 47/110/34 44/107/34 
f 48/111/35 46/102/35 49/112/35 
f 49/112/33 50/113/33 48/111/33 
f 46/102/33 45/101/33 51/114/33 
f 51/114/33 49/112/33 46/102/33 
f 45/101/35 47/115/35 52/116/35 
f 52/116/33 51/114/33 45/101/33 
f 47/115/33 48/111/33 50/113/33 
f 50/113/33 52/116/33 47/115/33 
f 49/117/28 51/118/28 53/119/28 
f 53/119/28 54/120/28 49/117/28 
f 51/121/36 52/122/36 55/123/36 
f 55/123/36 53/124/36 51/121/36 
f 52/125/34 50/126/34 56/127/34 
f 56/127/34 55/128/34 52/125/34 
f 54/120/28 53/119/28 57/129/28 
f 57/129/28 58/130/28 54/120/28 
f 53/124/37 55/123/37 59/131/37 
f 59/131/37 57/132/37 53/124/37 
f 55/128/30 56/127/30 60/133/30 
f 60/133/30 59/134/30 55/128/30 
f 58/130/28 57/129/28 61/135/28 
f 61/135/28 62/136/28 58/130/28 
f 57/132/38 59/131/38 63/137/38 
f 63/137/38 61/135/38 57/132/38 
f 59/134/30 60/133/30 64/138/30 
f 64/138/30 63/139/30 59/134/30 
f 62/136/28 61/135/28 65/140/28 
f 65/140/28 66/141/28 62/136/28 
f 61/135/39 63/137/39 67/142/39 
f 67/142/39 65/140/39 61/135/39 
f 63/139/40 64/138/40 68/143/40 
f 68/143/40 67/142/40 63/139/40 
f 69/144/41 66/141/41 65/140/41 
f 65/140/28 70/145/28 69/144/28 
f 65/140/42 67/142/42 71/146/42 
f 71/146/42 70/147/42 65/140/42 
f 67/142/40 68/143/40 72/148/40 
f 72/148/43 71/146/43 67/142/43 
f 72/149/44 69/150/44 73/151/44 
f 73/151/44 74/152/44 72/149/44 
f 69/150/45 70/153/45 75/154/45 
f 75/154/45 73/151/45 69/150/45 
f 70/153/46 71/155/46 76/156/46 
f 76/156/46 75/154/46 70/153/46 
f 71/155/47 72/149/47 74/152/47 
f 74/152/47 76/156/47 71/155/47 
f 74/152/48 73/151/48 77/157/48 
f 77/157/48 78/158/48 74/152/48 
f 73/151/28 75/154/28 79/159/28 
f 79/159/28 77/160/28 73/151/28 
f 75/154/33 76/156/33 80/161/33 
f 80/161/33 79/162/33 75/154/33 
f 76/156/30 74/152/30 78/163/30 
f 78/163/30 80/164/30 76/156/30 
# 92 faces

#
# object Cylinder01
#

v  28.5917 60.0000 -3.7392
v  32.1270 60.0000 -5.2035
v  32.1270 62.4799 -5.2035
v  28.5917 62.4799 -3.7392
v  33.5914 60.0000 -8.7389
v  33.5914 62.4799 -8.7389
v  32.1270 60.0000 -12.2742
v  32.1270 62.4799 -12.2742
v  28.5917 60.0000 -13.7386
v  28.5917 62.4799 -13.7386
v  25.0563 60.0000 -12.2742
v  25.0563 62.4799 -12.2742
v  23.5920 60.0000 -8.7389
v  23.5920 62.4799 -8.7389
v  25.0563 60.0000 -5.2035
v  25.0563 62.4799 -5.2035
# 16 vertices

vn -0.0000 0.0000 1.0000
vn 0.7071 0.0000 0.7071
vn 1.0000 0.0000 -0.0000
vn 0.7071 0.0000 -0.7071
vn 0.0000 0.0000 -1.0000
vn -0.7071 0.0000 -0.7071
vn -1.0000 0.0000 -0.0000
vn -0.7071 0.0000 0.7071
vn 0.0000 1.0000 -0.0000
# 9 vertex normals

vt 0.9359 0.0254 0.0000
vt 0.9487 0.0254 0.0000
vt 0.9487 0.0394 0.0000
vt 0.9359 0.0394 0.0000
vt 0.9616 0.0254 0.0000
vt 0.9616 0.0394 0.0000
vt 0.9745 0.0254 0.0000
vt 0.9745 0.0394 0.0000
vt 0.9873 0.0254 0.0000
vt 0.9873 0.0394 0.0000
vt 0.8844 0.0254 0.0000
vt 0.8973 0.0254 0.0000
vt 0.8973 0.0394 0.0000
vt 0.8844 0.0394 0.0000
vt 0.9101 0.0254 0.0000
vt 0.9101 0.0394 0.0000
vt 0.9230 0.0254 0.0000
vt 0.9230 0.0394 0.0000
vt 0.9578 0.0485 0.0000
vt 0.9578 0.0614 0.0000
vt 0.9487 0.0705 0.0000
vt 0.9359 0.0705 0.0000
vt 0.9268 0.0614 0.0000
vt 0.9268 0.0485 0.0000
# 24 texture coords

g Cylinder01
usemtl 02___Default
s 8
f 81/165/49 82/166/50 83/167/50 
f 83/167/50 84/168/49 81/165/49 
f 82/166/50 85/169/51 86/170/51 
f 86/170/51 83/167/50 82/166/50 
f 85/169/51 87/171/52 88/172/52 
f 88/172/52 86/170/51 85/169/51 
f 87/171/52 89/173/53 90/174/53 
f 90/174/53 88/172/52 87/171/52 
f 89/175/53 91/176/54 92/177/54 
f 92/177/54 90/178/53 89/175/53 
f 91/176/54 93/179/55 94/180/55 
f 94/180/55 92/177/54 91/176/54 
f 93/179/55 95/181/56 96/182/56 
f 96/182/56 94/180/55 93/179/55 
f 95/181/56 81/165/49 84/168/49 
f 84/168/49 96/182/56 95/181/56 
s 1
f 83/167/57 86/183/57 88/184/57 
f 88/184/57 90/185/57 92/186/57 
f 92/186/57 94/187/57 96/188/57 
f 88/184/57 92/186/57 96/188/57 
f 83/167/57 88/184/57 96/188/57 
f 84/168/57 83/167/57 96/188/57 
# 22 faces

#
# object Cylinder02
#

v  28.5917 60.0000 12.9265
v  32.1270 60.0000 11.4621
v  32.1270 62.4799 11.4621
v  28.5917 62.4799 12.9265
v  33.5914 60.0000 7.9268
v  33.5914 62.4799 7.9268
v  32.1270 60.0000 4.3915
v  32.1270 62.4799 4.3915
v  28.5917 60.0000 2.9271
v  28.5917 62.4799 2.9271
v  25.0563 60.0000 4.3915
v  25.0563 62.4799 4.3915
v  23.5920 60.0000 7.9268
v  23.5920 62.4799 7.9268
v  25.0563 60.0000 11.4621
v  25.0563 62.4799 11.4621
# 16 vertices

vn -0.0000 0.0000 1.0000
vn 0.7071 0.0000 0.7071
vn 1.0000 0.0000 -0.0000
vn 0.7071 0.0000 -0.7071
vn 0.0000 0.0000 -1.0000
vn -0.7071 0.0000 -0.7071
vn -1.0000 0.0000 -0.0000
vn -0.7071 0.0000 0.7071
vn 0.0000 1.0000 -0.0000
# 9 vertex normals

vt 0.9359 0.0254 0.0000
vt 0.9487 0.0254 0.0000
vt 0.9487 0.0394 0.0000
vt 0.9359 0.0394 0.0000
vt 0.9616 0.0254 0.0000
vt 0.9616 0.0394 0.0000
vt 0.9745 0.0254 0.0000
vt 0.9745 0.0394 0.0000
vt 0.9873 0.0254 0.0000
vt 0.9873 0.0394 0.0000
vt 0.8844 0.0254 0.0000
vt 0.8973 0.0254 0.0000
vt 0.8973 0.0394 0.0000
vt 0.8844 0.0394 0.0000
vt 0.9101 0.0254 0.0000
vt 0.9101 0.0394 0.0000
vt 0.9230 0.0254 0.0000
vt 0.9230 0.0394 0.0000
vt 0.9578 0.0485 0.0000
vt 0.9578 0.0614 0.0000
vt 0.9487 0.0705 0.0000
vt 0.9359 0.0705 0.0000
vt 0.9268 0.0614 0.0000
vt 0.9268 0.0485 0.0000
# 24 texture coords

g Cylinder02
usemtl 02___Default
s 8
f 97/189/58 98/190/59 99/191/59 
f 99/191/59 100/192/58 97/189/58 
f 98/190/59 101/193/60 102/194/60 
f 102/194/60 99/191/59 98/190/59 
f 101/193/60 103/195/61 104/196/61 
f 104/196/61 102/194/60 101/193/60 
f 103/195/61 105/197/62 106/198/62 
f 106/198/62 104/196/61 103/195/61 
f 105/199/62 107/200/63 108/201/63 
f 108/201/63 106/202/62 105/199/62 
f 107/200/63 109/203/64 110/204/64 
f 110/204/64 108/201/63 107/200/63 
f 109/203/64 111/205/65 112/206/65 
f 112/206/65 110/204/64 109/203/64 
f 111/205/65 97/189/58 100/192/58 
f 100/192/58 112/206/65 111/205/65 
s 1
f 99/191/66 102/207/66 104/208/66 
f 104/208/66 106/209/66 108/210/66 
f 108/210/66 110/211/66 112/212/66 
f 104/208/66 108/210/66 112/212/66 
f 99/191/66 104/208/66 112/212/66 
f 100/192/66 99/191/66 112/212/66 
# 22 faces

#
# object Cylinder03
#

v  28.5917 60.0000 -20.4048
v  32.1270 60.0000 -21.8692
v  32.1270 62.4799 -21.8692
v  28.5917 62.4799 -20.4048
v  33.5914 60.0000 -25.4045
v  33.5914 62.4799 -25.4045
v  32.1270 60.0000 -28.9399
v  32.1270 62.4799 -28.9399
v  28.5917 60.0000 -30.4042
v  28.5917 62.4799 -30.4042
v  25.0563 60.0000 -28.9399
v  25.0563 62.4799 -28.9399
v  23.5920 60.0000 -25.4045
v  23.5920 62.4799 -25.4045
v  25.0563 60.0000 -21.8692
v  25.0563 62.4799 -21.8692
# 16 vertices

vn -0.0000 0.0000 1.0000
vn 0.7071 0.0000 0.7071
vn 1.0000 0.0000 -0.0000
vn 0.7071 0.0000 -0.7071
vn 0.0000 0.0000 -1.0000
vn -0.7071 0.0000 -0.7071
vn -1.0000 0.0000 -0.0000
vn -0.7071 0.0000 0.7071
vn 0.0000 1.0000 -0.0000
# 9 vertex normals

vt 0.9359 0.0254 0.0000
vt 0.9487 0.0254 0.0000
vt 0.9487 0.0394 0.0000
vt 0.9359 0.0394 0.0000
vt 0.9616 0.0254 0.0000
vt 0.9616 0.0394 0.0000
vt 0.9745 0.0254 0.0000
vt 0.9745 0.0394 0.0000
vt 0.9873 0.0254 0.0000
vt 0.9873 0.0394 0.0000
vt 0.8844 0.0254 0.0000
vt 0.8973 0.0254 0.0000
vt 0.8973 0.0394 0.0000
vt 0.8844 0.0394 0.0000
vt 0.9101 0.0254 0.0000
vt 0.9101 0.0394 0.0000
vt 0.9230 0.0254 0.0000
vt 0.9230 0.0394 0.0000
vt 0.9578 0.0485 0.0000
vt 0.9578 0.0614 0.0000
vt 0.9487 0.0705 0.0000
vt 0.9359 0.0705 0.0000
vt 0.9268 0.0614 0.0000
vt 0.9268 0.0485 0.0000
# 24 texture coords

g Cylinder03
usemtl 02___Default
s 8
f 113/213/67 114/214/68 115/215/68 
f 115/215/68 116/216/67 113/213/67 
f 114/214/68 117/217/69 118/218/69 
f 118/218/69 115/215/68 114/214/68 
f 117/217/69 119/219/70 120/220/70 
f 120/220/70 118/218/69 117/217/69 
f 119/219/70 121/221/71 122/222/71 
f 122/222/71 120/220/70 119/219/70 
f 121/223/71 123/224/72 124/225/72 
f 124/225/72 122/226/71 121/223/71 
f 123/224/72 125/227/73 126/228/73 
f 126/228/73 124/225/72 123/224/72 
f 125/227/73 127/229/74 128/230/74 
f 128/230/74 126/228/73 125/227/73 
f 127/229/74 113/213/67 116/216/67 
f 116/216/67 128/230/74 127/229/74 
s 1
f 115/215/75 118/231/75 120/232/75 
f 120/232/75 122/233/75 124/234/75 
f 124/234/75 126/235/75 128/236/75 
f 120/232/75 124/234/75 128/236/75 
f 115/215/75 120/232/75 128/236/75 
f 116/216/75 115/215/75 128/236/75 
# 22 faces

#
# object Cylinder04
#

v  28.5917 60.0000 29.5922
v  32.1270 60.0000 28.1278
v  32.1270 62.4799 28.1278
v  28.5917 62.4799 29.5922
v  33.5914 60.0000 24.5925
v  33.5914 62.4799 24.5925
v  32.1270 60.0000 21.0572
v  32.1270 62.4799 21.0572
v  28.5917 60.0000 19.5928
v  28.5917 62.4799 19.5928
v  25.0563 60.0000 21.0572
v  25.0563 62.4799 21.0572
v  23.5920 60.0000 24.5925
v  23.5920 62.4799 24.5925
v  25.0563 60.0000 28.1278
v  25.0563 62.4799 28.1278
# 16 vertices

vn -0.0000 0.0000 1.0000
vn 0.7071 0.0000 0.7071
vn 1.0000 0.0000 -0.0000
vn 0.7071 0.0000 -0.7071
vn 0.0000 0.0000 -1.0000
vn -0.7071 0.0000 -0.7071
vn -1.0000 0.0000 -0.0000
vn -0.7071 0.0000 0.7071
vn 0.0000 1.0000 -0.0000
# 9 vertex normals

vt 0.9359 0.0254 0.0000
vt 0.9487 0.0254 0.0000
vt 0.9487 0.0394 0.0000
vt 0.9359 0.0394 0.0000
vt 0.9616 0.0254 0.0000
vt 0.9616 0.0394 0.0000
vt 0.9745 0.0254 0.0000
vt 0.9745 0.0394 0.0000
vt 0.9873 0.0254 0.0000
vt 0.9873 0.0394 0.0000
vt 0.8844 0.0254 0.0000
vt 0.8973 0.0254 0.0000
vt 0.8973 0.0394 0.0000
vt 0.8844 0.0394 0.0000
vt 0.9101 0.0254 0.0000
vt 0.9101 0.0394 0.0000
vt 0.9230 0.0254 0.0000
vt 0.9230 0.0394 0.0000
vt 0.9578 0.0485 0.0000
vt 0.9578 0.0614 0.0000
vt 0.9487 0.0705 0.0000
vt 0.9359 0.0705 0.0000
vt 0.9268 0.0614 0.0000
vt 0.9268 0.0485 0.0000
# 24 texture coords

g Cylinder04
usemtl 02___Default
s 8
f 129/237/76 130/238/77 131/239/77 
f 131/239/77 132/240/76 129/237/76 
f 130/238/77 133/241/78 134/242/78 
f 134/242/78 131/239/77 130/238/77 
f 133/241/78 135/243/79 136/244/79 
f 136/244/79 134/242/78 133/241/78 
f 135/243/79 137/245/80 138/246/80 
f 138/246/80 136/244/79 135/243/79 
f 137/247/80 139/248/81 140/249/81 
f 140/249/81 138/250/80 137/247/80 
f 139/248/81 141/251/82 142/252/82 
f 142/252/82 140/249/81 139/248/81 
f 141/251/82 143/253/83 144/254/83 
f 144/254/83 142/252/82 141/251/82 
f 143/253/83 129/237/76 132/240/76 
f 132/240/76 144/254/83 143/253/83 
s 1
f 131/239/84 134/255/84 136/256/84 
f 136/256/84 138/257/84 140/258/84 
f 140/258/84 142/259/84 144/260/84 
f 136/256/84 140/258/84 144/260/84 
f 131/239/84 136/256/84 144/260/84 
f 132/240/84 131/239/84 144/260/84 
# 22 faces

#
# object Box03
#

v  -74.2833 52.0000 37.5000
v  0.7167 52.0000 37.5000
v  0.7167 52.0000 -37.5000
v  -74.2833 52.0000 -37.5000
v  -74.2833 50.0000 37.5000
v  0.7167 50.0000 37.5000
v  0.7167 50.0000 -37.5000
v  -74.2833 50.0000 -37.5000
# 8 vertices

vn 0.0000 1.0000 -0.0000
vn 0.0000 0.0000 1.0000
vn 1.0000 0.0000 -0.0000
vn 0.0000 0.0000 -1.0000
vn -1.0000 0.0000 -0.0000
# 5 vertex normals

vt 0.0147 0.0110 0.0000
vt 0.4090 0.0110 0.0000
vt 0.4090 0.4052 0.0000
vt 0.0147 0.4052 0.0000
vt 0.0147 0.0005 0.0000
vt 0.4090 0.0005 0.0000
vt 0.4195 0.0110 0.0000
vt 0.4195 0.4052 0.0000
vt 0.4090 0.4157 0.0000
vt 0.0147 0.4157 0.0000
vt 0.0042 0.4052 0.0000
vt 0.0042 0.0110 0.0000
# 12 texture coords

g Box03
usemtl 02___Default
s 4
f 145/261/85 146/262/85 147/263/85 
f 147/263/85 148/264/85 145/261/85 
s 8
f 149/265/86 150/266/86 146/262/86 
f 146/262/86 145/261/86 149/265/86 
s 16
f 150/267/87 151/268/87 147/263/87 
f 147/263/87 146/262/87 150/267/87 
s 32
f 151/269/88 152/270/88 148/264/88 
f 148/264/88 147/263/88 151/269/88 
s 64
f 152/271/89 149/272/89 145/261/89 
f 145/261/89 148/264/89 152/271/89 
# 10 faces

