# 3ds Max Wavefront OBJ Exporter v0.97b - (c)2007 guruware
# File Created: 20.09.2013 14:07:15

mtllib button.mtl

#
# object Box01
#

v  -250.0000 0.0000 250.0000
v  -250.0000 0.0000 -250.0000
v  250.0000 0.0000 -250.0000
v  250.0000 0.0000 250.0000
v  -250.0000 50.0000 250.0000
v  250.0000 50.0000 250.0000
v  250.0000 50.0000 -250.0000
v  -250.0000 50.0000 -250.0000
# 8 vertices

vn 0.0000 -1.0000 -0.0000
vn 0.0000 1.0000 -0.0000
vn 0.0000 0.0000 1.0000
vn 1.0000 0.0000 -0.0000
vn 0.0000 0.0000 -1.0000
vn -1.0000 0.0000 -0.0000
# 6 vertex normals

vt 0.5000 0.5000 0.0000
vt 0.5000 0.0455 0.0000
vt 0.9545 0.0455 0.0000
vt 0.9545 0.5000 0.0000
vt 0.4545 0.5000 0.0000
vt 0.0000 0.5000 0.0000
vt 0.0000 0.0455 0.0000
vt 0.4545 0.0455 0.0000
vt 0.9545 0.5455 0.0000
vt 0.5000 0.5455 0.0000
vt 1.0000 0.0455 0.0000
vt 1.0000 0.5000 0.0000
vt 0.5000 0.0000 0.0000
vt 0.9545 0.0000 0.0000
# 14 texture coords

g Box01
usemtl wire_177088026
s 2
f 1/1/1 2/2/1 3/3/1 
f 3/3/1 4/4/1 1/1/1 
s 4
f 5/5/2 6/6/2 7/7/2 
f 7/7/2 8/8/2 5/5/2 
s 8
f 1/1/3 4/4/3 6/9/3 
f 6/9/3 5/10/3 1/1/3 
s 16
f 4/4/4 3/3/4 7/11/4 
f 7/11/4 6/12/4 4/4/4 
s 32
f 3/3/5 2/2/5 8/13/5 
f 8/13/5 7/14/5 3/3/5 
s 64
f 2/2/6 1/1/6 5/5/6 
f 5/5/6 8/8/6 2/2/6 
# 12 faces

